<svg width="229" height="86" viewBox="0 0 229 86" fill="none" xmlns="http://www.w3.org/2000/svg">
<path d="M132.945 0H113.939H94.9337L85.2129 14.9928L113.908 50.4191L142.603 14.9928L132.945 0ZM113.97 41.8253L91.9427 14.6528L97.9247 5.40978H129.985L135.967 14.6528H101.882L122.975 19.8771C126.371 20.7117 127.773 24.7922 125.561 27.5126L113.97 41.8253Z" fill="#DA2128"/>
<path d="M136.652 22.381L113.939 50.4191V41.8253L125.561 27.4817C127.773 24.7613 126.371 20.7117 122.975 19.8462L136.652 22.381Z" fill="#A81F2E"/>
<path d="M15.4536 71.6254L13.9581 79.5392H11.746C11.341 79.5392 11.0294 79.3846 10.7178 79.0755C10.4374 78.7663 10.2816 78.3954 10.2816 77.9317C10.2816 77.8699 10.2816 77.808 10.2816 77.7462C10.2816 77.6844 10.3128 77.6226 10.3128 77.5607L11.4656 71.6254H7.50871L6.38707 77.7771C6.26245 78.3954 6.0132 78.8282 5.57701 79.1064C5.17197 79.3846 4.70463 79.5083 4.17497 79.5083H2.05633L3.55184 71.5945H1.27741C0.872381 71.5945 0.52966 71.5018 0.311565 71.2854C0.124626 71.0999 0 70.7908 0 70.3271C0 70.1416 0.0311565 69.9252 0.0623129 69.7088L0.311565 68.1632H4.01918L5.04735 62.8152H0.872381L1.24626 60.8059C1.33973 60.3113 1.52667 59.9403 1.83823 59.7239C2.1498 59.4766 2.6483 59.353 3.3649 59.353H5.54585L6.76095 53.1085C6.85442 52.583 7.10367 52.1812 7.47755 51.9029C7.85143 51.6247 8.28762 51.4702 8.81728 51.4702H10.9982L9.50272 59.3221H13.4907L14.9863 51.4702H17.1361C17.6034 51.4702 17.9773 51.5938 18.2577 51.872C18.5381 52.1193 18.6939 52.4594 18.6939 52.8612C18.6939 52.9849 18.6939 53.0776 18.6627 53.1395L17.4476 59.3839H21.4045L21.0306 61.3932C20.9371 61.8878 20.719 62.2588 20.4075 62.4752C20.0959 62.7225 19.5974 62.8461 18.8808 62.8461H16.918L15.921 68.1941H18.6939C19.0989 68.1941 19.4416 68.2868 19.6286 68.5032C19.8155 68.7196 19.9401 69.0287 19.9401 69.5234C19.9401 69.7088 19.909 69.9252 19.8778 70.1416L19.6286 71.6564H15.4536V71.6254ZM7.97605 68.1632H11.9641L12.9611 62.8152H9.00422L7.97605 68.1632Z" fill="#FEF5F6"/>
<path d="M24.6759 79.5083V51.5011H34.4279C36.2661 51.5011 37.8551 51.6865 39.1637 52.0266C40.4722 52.3666 41.5316 52.8612 42.3728 53.5104C43.214 54.1596 43.8371 54.9324 44.211 55.8598C44.5849 56.7872 44.803 57.8073 44.803 58.9511C44.803 59.6003 44.7095 60.2494 44.5226 60.8368C44.3356 61.4241 44.0241 62.0115 43.6191 62.537C43.214 63.0625 42.6844 63.5262 42.0612 63.959C41.4381 64.3918 40.6903 64.7318 39.818 65.041C43.7125 65.9065 45.6442 67.9777 45.6442 71.2854C45.6442 72.4601 45.4261 73.573 44.9588 74.5931C44.4914 75.6132 43.8371 76.4788 42.9648 77.1898C42.0924 77.9317 41.0331 78.4881 39.7556 78.89C38.4782 79.2919 37.0139 79.5083 35.3937 79.5083H24.6759ZM29.9102 63.619H34.1163C35.8922 63.619 37.2631 63.3098 38.1667 62.6607C39.1014 62.0115 39.5687 60.9914 39.5687 59.5694C39.5687 58.1165 39.1637 57.0654 38.3225 56.4472C37.4812 55.8289 36.1727 55.5198 34.4279 55.5198H29.9102V63.619ZM29.9102 67.2358V75.4587H35.238C36.2038 75.4587 37.045 75.335 37.6993 75.1186C38.3536 74.9022 38.8833 74.5622 39.2883 74.1912C39.6933 73.7893 39.9737 73.3566 40.1607 72.831C40.3476 72.3055 40.4099 71.78 40.4099 71.1927C40.4099 70.5744 40.3165 70.0489 40.1295 69.5543C39.9426 69.0597 39.631 68.6578 39.226 68.3177C38.821 67.9777 38.2601 67.6995 37.637 67.5449C36.9827 67.3594 36.2038 67.2667 35.2691 67.2667H29.9102V67.2358Z" fill="#FEF5F6"/>
<path d="M54.1811 59.6312V72.2746C54.1811 73.4802 54.4615 74.4385 55.0223 75.0877C55.5831 75.7678 56.4244 76.0769 57.5771 76.0769C58.4184 76.0769 59.1973 75.8914 59.9139 75.5205C60.6305 75.1495 61.3471 74.6549 61.9702 74.0057V59.6312H66.7995V79.5083H63.8708C63.2476 79.5083 62.8426 79.23 62.6557 78.6427L62.3129 77.0661C61.9079 77.468 61.4717 77.8699 61.0355 78.2099C60.5993 78.55 60.132 78.8282 59.6335 79.0755C59.135 79.3228 58.6053 79.5083 58.0133 79.6319C57.4214 79.7556 56.7982 79.8483 56.1439 79.8483C55.0535 79.8483 54.0876 79.6628 53.2464 79.2919C52.4052 78.9209 51.6886 78.3954 51.1278 77.7462C50.5669 77.0661 50.1307 76.2624 49.8192 75.3659C49.5076 74.4694 49.383 73.4184 49.383 72.3055V59.6621H54.1811V59.6312Z" fill="#FEF5F6"/>
<path d="M77.7354 53.8505C77.7354 54.2523 77.6419 54.6542 77.4861 55.0252C77.3303 55.3961 77.0811 55.7052 76.8007 55.9835C76.5203 56.2617 76.1776 56.4781 75.8037 56.6326C75.4298 56.7872 75.0248 56.8799 74.5886 56.8799C74.1835 56.8799 73.7785 56.7872 73.4046 56.6326C73.0308 56.4781 72.7192 56.2617 72.4388 55.9835C72.1584 55.7052 71.9403 55.3961 71.7845 55.0252C71.6287 54.6542 71.5352 54.2832 71.5352 53.8505C71.5352 53.4177 71.6287 53.0158 71.7845 52.6449C71.9403 52.2739 72.1584 51.9338 72.4388 51.6865C72.7192 51.4083 73.0308 51.1919 73.4046 51.0374C73.7785 50.8828 74.1835 50.7901 74.5886 50.7901C75.0248 50.7901 75.4298 50.8828 75.8037 51.0374C76.1776 51.1919 76.5203 51.4083 76.8007 51.6865C77.0811 51.9648 77.2992 52.2739 77.4861 52.6449C77.6731 53.0158 77.7354 53.4177 77.7354 53.8505ZM77.0188 59.6312V79.5083H72.1895V59.6312H77.0188Z" fill="#FEF5F6"/>
<path d="M87.5185 50.7282V79.5083H82.6892V50.7282H87.5185Z" fill="#FEF5F6"/>
<path d="M99.4826 79.8174C97.7378 79.8174 96.4293 79.3228 95.4946 78.3645C94.5599 77.3753 94.0925 76.046 94.0925 74.3149V63.2171H92.0674C91.8181 63.2171 91.5688 63.1244 91.3819 62.9698C91.195 62.8152 91.1015 62.537 91.1015 62.2279V60.3422L94.3106 59.8167L95.3388 54.4069C95.4011 54.1596 95.5257 53.9432 95.7127 53.8195C95.8996 53.665 96.1489 53.6031 96.4293 53.6031H98.9218V59.8476H104.187V63.248H98.9218V74.0057C98.9218 74.624 99.0776 75.1186 99.3891 75.4587C99.7007 75.7987 100.106 75.9842 100.635 75.9842C100.947 75.9842 101.196 75.9533 101.383 75.8914C101.57 75.8296 101.757 75.7369 101.913 75.675C102.069 75.5823 102.193 75.5205 102.318 75.4587C102.442 75.3968 102.567 75.3659 102.661 75.3659C102.816 75.3659 102.91 75.3968 103.003 75.4587C103.097 75.5205 103.19 75.6441 103.284 75.7678L104.717 78.0863C104 78.6736 103.221 79.1064 102.287 79.4155C101.414 79.6937 100.448 79.8174 99.4826 79.8174Z" fill="#FEF5F6"/>
<path d="M116.338 59.6312V79.5083H111.509V59.6312H116.338Z" fill="#FEF5F6"/>
<path d="M118.519 79.5083V59.6312H121.479C122.102 59.6312 122.507 59.9094 122.694 60.4967L123.037 62.0733C123.442 61.6714 123.878 61.3005 124.314 60.9604C124.75 60.6204 125.249 60.3422 125.747 60.0949C126.246 59.8476 126.776 59.6621 127.368 59.5384C127.928 59.4148 128.552 59.353 129.237 59.353C130.327 59.353 131.293 59.5384 132.135 59.9094C132.976 60.2804 133.692 60.8059 134.253 61.4551C134.814 62.1351 135.25 62.908 135.531 63.8354C135.811 64.7627 135.967 65.7829 135.967 66.8957V79.5392H131.169V66.8957C131.169 65.6901 130.888 64.7318 130.327 64.0827C129.767 63.4026 128.925 63.0934 127.773 63.0934C126.931 63.0934 126.153 63.2789 125.436 63.6499C124.719 64.0208 124.003 64.5464 123.38 65.1955V79.5701H118.519V79.5083Z" fill="#FEF5F6"/>
<path d="M147.526 68.565V79.5083H142.26V51.5011H150.86C152.791 51.5011 154.443 51.6865 155.813 52.0884C157.184 52.4903 158.306 53.0467 159.178 53.7577C160.051 54.4687 160.705 55.3034 161.11 56.2926C161.515 57.2818 161.733 58.3638 161.733 59.5694C161.733 60.5277 161.609 61.3932 161.328 62.2588C161.048 63.0934 160.643 63.8663 160.113 64.5464C159.583 65.2264 158.929 65.8447 158.15 66.3393C157.371 66.8648 156.499 67.2667 155.502 67.5758C156.156 67.9468 156.748 68.4723 157.216 69.1833L164.288 79.5392H159.552C159.085 79.5392 158.711 79.4464 158.399 79.2609C158.088 79.0755 157.807 78.8282 157.589 78.4881L151.639 69.5233C151.42 69.1833 151.171 68.936 150.922 68.8124C150.641 68.6578 150.268 68.596 149.738 68.596H147.526V68.565ZM147.526 64.8246H150.797C151.794 64.8246 152.636 64.7009 153.383 64.4536C154.131 64.2063 154.723 63.8663 155.19 63.4335C155.658 63.0007 156.032 62.4752 156.25 61.8878C156.499 61.3005 156.592 60.6513 156.592 59.9403C156.592 58.5183 156.125 57.4364 155.19 56.6635C154.256 55.8907 152.791 55.5198 150.86 55.5198H147.495V64.8246H147.526Z" fill="#FEF5F6"/>
<path d="M171.734 59.6312V72.2746C171.734 73.4802 172.015 74.4385 172.576 75.0877C173.136 75.7678 173.978 76.0769 175.13 76.0769C175.972 76.0769 176.751 75.8914 177.467 75.5205C178.184 75.1495 178.9 74.6549 179.524 74.0057V59.6312H184.353V79.5083H181.393C180.77 79.5083 180.365 79.23 180.178 78.6427L179.835 77.0661C179.43 77.468 178.994 77.8699 178.558 78.2099C178.121 78.55 177.654 78.8282 177.156 79.0755C176.657 79.3228 176.127 79.5083 175.536 79.6319C174.944 79.7556 174.32 79.8483 173.666 79.8483C172.576 79.8483 171.61 79.6628 170.769 79.2919C169.927 78.9209 169.211 78.3954 168.65 77.7462C168.089 77.0661 167.653 76.2624 167.341 75.3659C167.03 74.4694 166.905 73.4184 166.905 72.3055V59.6621H171.734V59.6312Z" fill="#FEF5F6"/>
<path d="M189.494 79.5083V50.7282H194.323V62.0733C195.102 61.2387 196.005 60.5586 197.033 60.064C198.03 59.5694 199.214 59.3221 200.554 59.3221C201.645 59.3221 202.642 59.5384 203.545 60.0021C204.449 60.4349 205.228 61.0841 205.882 61.9497C206.536 62.8152 207.035 63.8663 207.409 65.1028C207.782 66.3702 207.938 67.7922 207.938 69.4306C207.938 70.9144 207.751 72.3055 207.346 73.573C206.941 74.8404 206.38 75.9223 205.633 76.8806C204.885 77.808 203.981 78.5499 202.922 79.0755C201.863 79.601 200.679 79.8483 199.37 79.8483C198.747 79.8483 198.186 79.7865 197.688 79.6628C197.189 79.5392 196.722 79.3537 196.286 79.1373C195.881 78.9209 195.476 78.6427 195.133 78.3336C194.759 78.0244 194.447 77.6535 194.105 77.2825L193.887 78.6118C193.793 78.9518 193.669 79.1991 193.482 79.3228C193.295 79.4464 193.045 79.5392 192.703 79.5392H189.494V79.5083ZM198.872 63.0625C197.875 63.0625 197.002 63.2789 196.317 63.6808C195.6 64.1136 194.946 64.7009 194.323 65.4428V74.3458C194.884 75.0259 195.476 75.4896 196.099 75.7369C196.753 76.0151 197.438 76.1387 198.186 76.1387C198.903 76.1387 199.588 76.0151 200.149 75.7369C200.741 75.4586 201.24 75.0568 201.645 74.5003C202.05 73.9439 202.361 73.2329 202.579 72.3983C202.797 71.5636 202.922 70.5435 202.922 69.3997C202.922 68.225 202.829 67.2667 202.642 66.432C202.455 65.6283 202.174 64.9791 201.832 64.4536C201.489 63.959 201.053 63.588 200.554 63.3407C200.056 63.0934 199.526 63.0625 198.872 63.0625Z" fill="#FEF5F6"/>
<path d="M218.095 84.9799C217.939 85.3199 217.753 85.5672 217.534 85.7527C217.316 85.9382 216.974 86 216.475 86H212.892L216.631 78.0244L208.53 59.6312H212.736C213.141 59.6312 213.422 59.7239 213.64 59.9094C213.858 60.0949 214.014 60.3113 214.107 60.5277L218.376 70.8217C218.531 71.1618 218.656 71.5018 218.749 71.8728C218.843 72.2437 218.936 72.5837 219.03 72.9547C219.123 72.5837 219.248 72.2128 219.373 71.8728C219.497 71.5327 219.622 71.1618 219.778 70.8217L223.797 60.5277C223.89 60.2804 224.077 60.064 224.327 59.8785C224.576 59.7239 224.825 59.6312 225.137 59.6312H229L218.095 84.9799Z" fill="#FEF5F6"/>
</svg>
