<svg width="310" height="92" viewBox="0 0 310 92" fill="none" xmlns="http://www.w3.org/2000/svg">
<path d="M183.732 0H164.726H145.721L136 14.9928L164.695 50.4191L193.39 14.9928L183.732 0ZM164.757 41.8253L142.73 14.6528L148.712 5.40978H180.772L186.754 14.6528H152.669L173.762 19.8771C177.158 20.7117 178.56 24.7922 176.348 27.5126L164.757 41.8253Z" fill="#DA2128"/>
<path d="M187.439 22.381L164.726 50.4191V41.8253L176.348 27.4817C178.56 24.7613 177.158 20.7117 173.762 19.8462L187.439 22.381Z" fill="#A81F2E"/>
<path d="M309.198 58.96L295.678 91.36H290.958L295.438 80.64L286.758 58.96H291.838L298.038 75.76L304.478 58.96H309.198Z" fill="white"/>
<path d="M267.608 62.24C268.382 61.1734 269.435 60.3067 270.768 59.64C272.128 58.9467 273.635 58.6 275.288 58.6C277.235 58.6 278.995 59.0667 280.568 60C282.142 60.9334 283.382 62.2667 284.288 64C285.195 65.7067 285.648 67.6667 285.648 69.88C285.648 72.0934 285.195 74.08 284.288 75.84C283.382 77.5734 282.128 78.9334 280.528 79.92C278.955 80.88 277.208 81.36 275.288 81.36C273.582 81.36 272.062 81.0267 270.728 80.36C269.422 79.6934 268.382 78.84 267.608 77.8V81H263.048V51.4H267.608V62.24ZM281.008 69.88C281.008 68.36 280.688 67.0534 280.048 65.96C279.435 64.84 278.608 64 277.568 63.44C276.555 62.8534 275.462 62.56 274.288 62.56C273.142 62.56 272.048 62.8534 271.008 63.44C269.995 64.0267 269.168 64.88 268.528 66C267.915 67.12 267.608 68.44 267.608 69.96C267.608 71.48 267.915 72.8134 268.528 73.96C269.168 75.08 269.995 75.9334 271.008 76.52C272.048 77.1067 273.142 77.4 274.288 77.4C275.462 77.4 276.555 77.1067 277.568 76.52C278.608 75.9067 279.435 75.0267 280.048 73.88C280.688 72.7334 281.008 71.4 281.008 69.88Z" fill="white"/>
<path d="M257.832 58.96V81H253.272V78.4C252.552 79.3067 251.605 80.0267 250.432 80.56C249.285 81.0667 248.059 81.32 246.752 81.32C245.019 81.32 243.459 80.96 242.072 80.24C240.712 79.52 239.632 78.4534 238.832 77.04C238.059 75.6267 237.672 73.92 237.672 71.92V58.96H242.192V71.24C242.192 73.2134 242.685 74.7334 243.672 75.8C244.659 76.84 246.005 77.36 247.712 77.36C249.419 77.36 250.765 76.84 251.752 75.8C252.765 74.7334 253.272 73.2134 253.272 71.24V58.96H257.832Z" fill="white"/>
<path d="M227.838 81L221.438 69.88H217.958V81H213.398V53.2H222.998C225.132 53.2 226.932 53.5733 228.398 54.32C229.892 55.0667 230.998 56.0667 231.718 57.32C232.465 58.5733 232.838 59.9733 232.838 61.52C232.838 63.3333 232.305 64.9867 231.238 66.48C230.198 67.9467 228.585 68.9467 226.398 69.48L233.278 81H227.838ZM217.958 66.24H222.998C224.705 66.24 225.985 65.8133 226.838 64.96C227.718 64.1067 228.158 62.96 228.158 61.52C228.158 60.08 227.732 58.96 226.878 58.16C226.025 57.3333 224.732 56.92 222.998 56.92H217.958V66.24Z" fill="white"/>
<path d="M197.622 58.6C199.302 58.6 200.795 58.96 202.102 59.68C203.435 60.4 204.475 61.4667 205.222 62.88C205.995 64.2934 206.382 66 206.382 68V81H201.862V68.68C201.862 66.7067 201.369 65.2 200.382 64.16C199.395 63.0934 198.049 62.56 196.342 62.56C194.635 62.56 193.275 63.0934 192.262 64.16C191.275 65.2 190.782 66.7067 190.782 68.68V81H186.222V51.4H190.782V61.52C191.555 60.5867 192.529 59.8667 193.702 59.36C194.902 58.8534 196.209 58.6 197.622 58.6Z" fill="white"/>
<path d="M177.459 62.68V74.88C177.459 75.7066 177.646 76.3066 178.019 76.68C178.419 77.0266 179.086 77.2 180.019 77.2H182.819V81H179.219C177.166 81 175.592 80.52 174.499 79.56C173.406 78.6 172.859 77.04 172.859 74.88V62.68H170.259V58.96H172.859V53.48H177.459V58.96H182.819V62.68H177.459Z" fill="white"/>
<path d="M166.952 58.96V81H162.392V58.96H166.952Z" fill="white"/>
<path d="M159.431 53.2L151.191 81H146.031L140.191 59.96L133.991 81L128.871 81.04L120.991 53.2H125.831L131.591 75.84L137.831 53.2H142.951L148.751 75.72L154.551 53.2H159.431Z" fill="white"/>
<path d="M110.468 62.68V74.88C110.468 75.7066 110.655 76.3066 111.028 76.68C111.428 77.0266 112.095 77.2 113.028 77.2H115.828V81H112.228C110.175 81 108.602 80.52 107.508 79.56C106.415 78.6 105.868 77.04 105.868 74.88V62.68H103.268V58.96H105.868V53.48H110.468V58.96H115.828V62.68H110.468Z" fill="white"/>
<path d="M99.9616 51.4V81H95.4016V51.4H99.9616Z" fill="white"/>
<path d="M87.9747 56.04C87.148 56.04 86.4547 55.76 85.8947 55.2C85.3347 54.64 85.0547 53.9467 85.0547 53.12C85.0547 52.2933 85.3347 51.6 85.8947 51.04C86.4547 50.48 87.148 50.2 87.9747 50.2C88.7747 50.2 89.4547 50.48 90.0147 51.04C90.5747 51.6 90.8547 52.2933 90.8547 53.12C90.8547 53.9467 90.5747 54.64 90.0147 55.2C89.4547 55.76 88.7747 56.04 87.9747 56.04ZM90.2147 58.96V81H85.6547V58.96H90.2147Z" fill="white"/>
<path d="M80.4381 58.96V81H75.8781V78.4C75.1581 79.3067 74.2115 80.0267 73.0381 80.56C71.8915 81.0667 70.6648 81.32 69.3581 81.32C67.6248 81.32 66.0648 80.96 64.6781 80.24C63.3181 79.52 62.2381 78.4534 61.4381 77.04C60.6648 75.6267 60.2781 73.92 60.2781 71.92V58.96H64.7981V71.24C64.7981 73.2134 65.2915 74.7334 66.2781 75.8C67.2648 76.84 68.6115 77.36 70.3181 77.36C72.0248 77.36 73.3715 76.84 74.3581 75.8C75.3715 74.7334 75.8781 73.2134 75.8781 71.24V58.96H80.4381Z" fill="white"/>
<path d="M50.9628 66.72C52.4561 66.9867 53.7228 67.7733 54.7628 69.08C55.8028 70.3867 56.3228 71.8667 56.3228 73.52C56.3228 74.9333 55.9495 76.2133 55.2028 77.36C54.4828 78.48 53.4295 79.3733 52.0428 80.04C50.6561 80.68 49.0428 81 47.2028 81H36.0828V53.2H46.6828C48.5761 53.2 50.2028 53.52 51.5628 54.16C52.9228 54.8 53.9495 55.6667 54.6428 56.76C55.3361 57.8267 55.6828 59.0267 55.6828 60.36C55.6828 61.96 55.2561 63.2933 54.4028 64.36C53.5495 65.4267 52.4028 66.2133 50.9628 66.72ZM40.6428 64.88H46.2828C47.7761 64.88 48.9361 64.5467 49.7628 63.88C50.6161 63.1867 51.0428 62.2 51.0428 60.92C51.0428 59.6667 50.6161 58.6933 49.7628 58C48.9361 57.28 47.7761 56.92 46.2828 56.92H40.6428V64.88ZM46.8028 77.28C48.3495 77.28 49.5628 76.9067 50.4428 76.16C51.3228 75.4133 51.7628 74.3733 51.7628 73.04C51.7628 71.68 51.2961 70.6 50.3628 69.8C49.4295 69 48.1895 68.6 46.6428 68.6H40.6428V77.28H46.8028Z" fill="white"/>
<path d="M25.32 62.68L23.84 69.6H29.12V73.6H23L21.4 81H17.04L18.64 73.6H10.8L9.20001 81H4.84001L6.44001 73.6H0.240005V69.6H7.28001L8.76001 62.68H2.60001V58.68H9.60001L11.16 51.4H15.52L13.96 58.68H21.8L23.36 51.4H27.72L26.16 58.68H31.48V62.68H25.32ZM20.96 62.68H13.12L11.64 69.6H19.48L20.96 62.68Z" fill="white"/>
</svg>
